<?xml version="1.0" encoding="utf-8"?>
<!-- Generator: Adobe Illustrator 19.0.0, SVG Export Plug-In . SVG Version: 6.00 Build 0)  -->
<svg version="1.1" id="Layer_1" xmlns="http://www.w3.org/2000/svg" xmlns:xlink="http://www.w3.org/1999/xlink" x="0px" y="0px"
	 viewBox="0 0 199 53.9" style="enable-background:new 0 0 199 53.9;" xml:space="preserve">
<style type="text/css">
	.st0{fill:#929597;}
	.st1{fill:#B6313A;}
	.st2{fill:#485766;}
</style>
<g id="XMLID_23_">
	<path id="XMLID_56_" class="st0" d="M94.4,24.2c0,9.8-4.3,15.3-12.2,15.3c-3.9,0-7-1.6-9.5-4.7l1.2-1.8c2.2,3,4.9,4.4,8.3,4.4
		c6.7,0,10-4.7,10-13.1V0h2.2V24.2z"/>
	<path id="XMLID_52_" class="st1" d="M157.5,18.1c3.7,0.9,7.6,3.9,7.6,9.5c0,6.1-4.4,11.1-13.7,11.1h-16.1V0h15.8
		c7,0,11.7,4.5,11.7,9.9c0,4.6-3,7.2-5.3,8V18.1z M149.8,15.3c3.2,0,5.3-1.3,5.3-4.2c0-2.7-2-4.7-5.5-4.7H143v8.9H149.8z
		 M150.8,32.4c3.9,0,6.3-2,6.3-5.3c0-3.5-2.7-4.5-6.3-4.5H143v9.9H150.8z"/>
	<path id="XMLID_50_" class="st1" d="M170.2,0h27.5v7.1h-19.8v8.1h14.9v7.2h-14.9v9.1h20.1v7.1h-27.8V0z"/>
	<polygon id="XMLID_16_" class="st0" points="105.9,36.7 105.9,19.4 105.9,19.3 105.9,17.3 124.2,17.3 124.2,17.2 124.2,15.3 
		105.9,15.3 105.9,2.1 128.8,2.1 128.8,0 103.8,0 103.8,38.8 128.8,38.8 128.8,36.7 	"/>
	<path id="XMLID_15_" class="st0" d="M16.7,39.2L31.8,8.8l-4.3-8.8l-27,53.7h9l1.1-2.3c4.2-7.6,16.9-15.1,16.9-15.1
		C24.8,36.4,16.7,39.2,16.7,39.2L16.7,39.2z"/>
	<polygon id="XMLID_14_" class="st2" points="29.9,12.7 27.4,0.1 31.8,8.8 	"/>
	<path id="XMLID_13_" class="st1" d="M63,53.8L36.3,0.1h-8.9L47,39.2c-0.4-0.1-0.7-0.2-0.7-0.2c-2.1-0.7-7.9-2.6-10-2.6
		c0,0,13.2,7.9,17.1,15.6c-0.4-0.8,0.7,1.5,0.7,1.5c-0.1-0.3-0.4-0.7-0.7-1.4c0,0,0,0,0,0c0.4,0.9,0.7,1.5,0.8,1.7l0,0c0,0,0,0,0,0
		s0,0,0,0l0,0.1H63z"/>
	<g id="XMLID_24_">
		<path id="XMLID_44_" class="st0" d="M136.9,51.8c0.2,0.3,0.4,0.6,0.7,0.8c0.3,0.2,0.6,0.4,1,0.4c0.4,0.1,0.8,0.1,1.3,0.1
			c0.3,0,0.5,0,0.9-0.1c0.3-0.1,0.6-0.2,0.9-0.4c0.3-0.2,0.5-0.4,0.7-0.6c0.2-0.3,0.3-0.6,0.3-0.9c0-0.3-0.1-0.5-0.2-0.7
			c-0.1-0.2-0.3-0.4-0.5-0.5c-0.2-0.1-0.4-0.3-0.7-0.3c-0.2-0.1-0.5-0.2-0.7-0.2l-2.2-0.5c-0.3-0.1-0.6-0.2-0.8-0.3
			c-0.3-0.1-0.5-0.3-0.7-0.4c-0.2-0.2-0.4-0.4-0.5-0.7c-0.1-0.3-0.2-0.6-0.2-1c0-0.2,0-0.5,0.1-0.9c0.1-0.3,0.3-0.6,0.5-0.9
			c0.3-0.3,0.6-0.5,1.1-0.7c0.4-0.2,1-0.3,1.7-0.3c0.5,0,1,0.1,1.4,0.2c0.4,0.1,0.8,0.3,1.2,0.6c0.3,0.3,0.6,0.6,0.8,1
			c0.2,0.4,0.3,0.8,0.3,1.4h-1c0-0.4-0.1-0.7-0.3-1c-0.2-0.3-0.4-0.5-0.6-0.7c-0.2-0.2-0.5-0.3-0.9-0.4c-0.3-0.1-0.7-0.1-1-0.1
			c-0.3,0-0.6,0-0.9,0.1c-0.3,0.1-0.6,0.2-0.8,0.3c-0.2,0.2-0.4,0.4-0.6,0.6c-0.1,0.3-0.2,0.6-0.2,0.9c0,0.2,0,0.4,0.1,0.6
			c0.1,0.2,0.2,0.3,0.3,0.4c0.1,0.1,0.3,0.2,0.5,0.3c0.2,0.1,0.4,0.1,0.6,0.2l2.4,0.6c0.4,0.1,0.7,0.2,1,0.3
			c0.3,0.1,0.6,0.3,0.8,0.5c0.2,0.2,0.4,0.4,0.6,0.7c0.1,0.3,0.2,0.6,0.2,1.1c0,0.1,0,0.3,0,0.4c0,0.2-0.1,0.4-0.2,0.6
			c-0.1,0.2-0.2,0.4-0.4,0.6c-0.2,0.2-0.4,0.4-0.7,0.6c-0.3,0.2-0.6,0.3-1.1,0.4c-0.4,0.1-0.9,0.2-1.5,0.2s-1.1-0.1-1.6-0.2
			c-0.5-0.1-0.9-0.3-1.3-0.6c-0.4-0.3-0.6-0.6-0.8-1.1c-0.2-0.4-0.3-1-0.2-1.6h1C136.6,51,136.7,51.4,136.9,51.8z"/>
		<path id="XMLID_41_" class="st0" d="M145,47.7c0.1-0.3,0.4-0.6,0.6-0.8c0.3-0.2,0.6-0.3,0.9-0.4c0.3-0.1,0.7-0.1,1.1-0.1
			c0.3,0,0.6,0,1,0.1c0.3,0.1,0.6,0.2,0.9,0.3c0.3,0.2,0.5,0.4,0.6,0.7c0.2,0.3,0.2,0.7,0.2,1.2v3.8c0,0.4,0.2,0.5,0.5,0.5
			c0.1,0,0.2,0,0.3-0.1v0.7c-0.1,0-0.2,0-0.3,0c-0.1,0-0.2,0-0.3,0c-0.2,0-0.4,0-0.5-0.1c-0.1-0.1-0.2-0.1-0.3-0.3
			c-0.1-0.1-0.1-0.2-0.1-0.4c0-0.2,0-0.3,0-0.5h0c-0.2,0.2-0.3,0.4-0.5,0.6c-0.2,0.2-0.3,0.3-0.5,0.5c-0.2,0.1-0.4,0.2-0.7,0.3
			c-0.3,0.1-0.6,0.1-0.9,0.1c-0.3,0-0.6,0-0.9-0.1c-0.3-0.1-0.6-0.2-0.8-0.4c-0.2-0.2-0.4-0.4-0.5-0.7c-0.1-0.3-0.2-0.6-0.2-0.9
			c0-0.5,0.1-0.9,0.3-1.2c0.2-0.3,0.5-0.5,0.9-0.7c0.4-0.1,0.8-0.3,1.2-0.3c0.5-0.1,0.9-0.1,1.4-0.2c0.2,0,0.3,0,0.5-0.1
			c0.1,0,0.3-0.1,0.4-0.1c0.1-0.1,0.2-0.2,0.2-0.3c0.1-0.1,0.1-0.3,0.1-0.5c0-0.3-0.1-0.5-0.1-0.7c-0.1-0.2-0.2-0.3-0.4-0.5
			c-0.2-0.1-0.4-0.2-0.6-0.2c-0.2,0-0.5-0.1-0.7-0.1c-0.6,0-1,0.1-1.4,0.4c-0.4,0.3-0.5,0.7-0.6,1.3h-0.9
			C144.8,48.4,144.9,48,145,47.7z M149.4,49.8c-0.1,0.1-0.2,0.2-0.3,0.2c-0.2,0-0.3,0.1-0.4,0.1c-0.4,0.1-0.8,0.1-1.2,0.2
			c-0.4,0.1-0.8,0.1-1.1,0.2c-0.3,0.1-0.6,0.2-0.8,0.4s-0.3,0.5-0.3,0.8c0,0.2,0,0.4,0.1,0.6c0.1,0.2,0.2,0.3,0.4,0.4
			c0.1,0.1,0.3,0.2,0.5,0.3c0.2,0.1,0.4,0.1,0.6,0.1c0.3,0,0.7-0.1,1-0.2c0.3-0.1,0.6-0.3,0.8-0.4c0.2-0.2,0.4-0.4,0.5-0.7
			c0.1-0.3,0.2-0.6,0.2-1L149.4,49.8L149.4,49.8z"/>
		<path id="XMLID_39_" class="st0" d="M153,46.6v1.2h0c0.2-0.4,0.5-0.8,0.9-1.1c0.4-0.3,0.9-0.4,1.4-0.4c0.5,0,0.9,0.1,1.3,0.2
			c0.3,0.1,0.6,0.3,0.8,0.6c0.2,0.2,0.3,0.5,0.4,0.9c0.1,0.3,0.1,0.7,0.1,1.2v4.6h-0.9v-4.5c0-0.3,0-0.6-0.1-0.9
			c-0.1-0.3-0.2-0.5-0.3-0.7c-0.1-0.2-0.3-0.4-0.6-0.5c-0.2-0.1-0.5-0.2-0.9-0.2c-0.4,0-0.7,0.1-0.9,0.2c-0.3,0.1-0.5,0.3-0.7,0.5
			c-0.2,0.2-0.3,0.5-0.4,0.8c-0.1,0.3-0.2,0.6-0.2,1v4.2h-0.9v-7.2H153z"/>
		<path id="XMLID_37_" class="st0" d="M162.5,46.6v0.7H161v4.9c0,0.3,0,0.5,0.1,0.7c0.1,0.2,0.3,0.3,0.6,0.3c0.3,0,0.5,0,0.8,0v0.7
			c-0.1,0-0.3,0-0.4,0c-0.1,0-0.3,0-0.4,0c-0.6,0-1-0.1-1.2-0.3c-0.2-0.2-0.3-0.7-0.3-1.3v-4.9h-1.3v-0.7h1.3v-2.2h0.9v2.2H162.5z"
			/>
		<path id="XMLID_35_" class="st0" d="M165.5,45.3c0,0.2,0,0.4-0.1,0.6c-0.1,0.2-0.1,0.4-0.2,0.6c-0.1,0.2-0.2,0.3-0.4,0.5
			c-0.2,0.1-0.3,0.2-0.6,0.3v-0.6c0.1,0,0.2-0.1,0.3-0.2c0.1-0.1,0.2-0.2,0.2-0.3c0.1-0.1,0.1-0.3,0.1-0.4c0-0.1,0-0.3,0-0.4h-0.6
			v-1.5h1.2V45.3z"/>
		<path id="XMLID_32_" class="st0" d="M171.8,43.8l3.9,10h-1l-1.2-3.1H169l-1.2,3.1h-1l4-10H171.8z M173.2,49.9l-1.9-5.1l-2,5.1
			H173.2z"/>
		<path id="XMLID_30_" class="st0" d="M177.4,46.6v1.2h0c0.2-0.4,0.5-0.8,0.9-1.1c0.4-0.3,0.9-0.4,1.4-0.4c0.5,0,0.9,0.1,1.3,0.2
			c0.3,0.1,0.6,0.3,0.8,0.6c0.2,0.2,0.3,0.5,0.4,0.9c0.1,0.3,0.1,0.7,0.1,1.2v4.6h-0.9v-4.5c0-0.3,0-0.6-0.1-0.9
			c-0.1-0.3-0.2-0.5-0.3-0.7c-0.1-0.2-0.3-0.4-0.6-0.5c-0.2-0.1-0.5-0.2-0.9-0.2c-0.4,0-0.7,0.1-0.9,0.2c-0.3,0.1-0.5,0.3-0.7,0.5
			c-0.2,0.2-0.3,0.5-0.4,0.8c-0.1,0.3-0.2,0.6-0.2,1v4.2h-0.9v-7.2H177.4z"/>
		<path id="XMLID_28_" class="st0" d="M184.9,46.6v1.2h0c0.2-0.4,0.5-0.8,0.9-1.1c0.4-0.3,0.9-0.4,1.4-0.4c0.5,0,0.9,0.1,1.3,0.2
			c0.3,0.1,0.6,0.3,0.8,0.6c0.2,0.2,0.3,0.5,0.4,0.9c0.1,0.3,0.1,0.7,0.1,1.2v4.6H189v-4.5c0-0.3,0-0.6-0.1-0.9
			c-0.1-0.3-0.2-0.5-0.3-0.7c-0.1-0.2-0.3-0.4-0.6-0.5c-0.2-0.1-0.5-0.2-0.9-0.2c-0.4,0-0.7,0.1-0.9,0.2c-0.3,0.1-0.5,0.3-0.7,0.5
			c-0.2,0.2-0.3,0.5-0.4,0.8c-0.1,0.3-0.2,0.6-0.2,1v4.2H184v-7.2H184.9z"/>
		<path id="XMLID_25_" class="st0" d="M191.7,47.7c0.1-0.3,0.4-0.6,0.6-0.8c0.3-0.2,0.6-0.3,0.9-0.4c0.3-0.1,0.7-0.1,1.1-0.1
			c0.3,0,0.6,0,0.9,0.1c0.3,0.1,0.6,0.2,0.9,0.3c0.3,0.2,0.5,0.4,0.6,0.7c0.2,0.3,0.2,0.7,0.2,1.2v3.8c0,0.4,0.2,0.5,0.5,0.5
			c0.1,0,0.2,0,0.3-0.1v0.7c-0.1,0-0.2,0-0.3,0c-0.1,0-0.2,0-0.3,0c-0.2,0-0.4,0-0.5-0.1c-0.1-0.1-0.2-0.1-0.3-0.3
			c-0.1-0.1-0.1-0.2-0.1-0.4c0-0.2,0-0.3,0-0.5h0c-0.2,0.2-0.3,0.4-0.5,0.6c-0.2,0.2-0.3,0.3-0.5,0.5c-0.2,0.1-0.4,0.2-0.7,0.3
			c-0.3,0.1-0.6,0.1-0.9,0.1c-0.3,0-0.7,0-0.9-0.1c-0.3-0.1-0.6-0.2-0.8-0.4c-0.2-0.2-0.4-0.4-0.5-0.7c-0.1-0.3-0.2-0.6-0.2-0.9
			c0-0.5,0.1-0.9,0.3-1.2c0.2-0.3,0.5-0.5,0.9-0.7c0.4-0.1,0.8-0.3,1.2-0.3c0.5-0.1,0.9-0.1,1.4-0.2c0.2,0,0.3,0,0.5-0.1
			c0.1,0,0.3-0.1,0.4-0.1c0.1-0.1,0.2-0.2,0.2-0.3c0.1-0.1,0.1-0.3,0.1-0.5c0-0.3,0-0.5-0.1-0.7c-0.1-0.2-0.2-0.3-0.4-0.5
			c-0.2-0.1-0.4-0.2-0.6-0.2c-0.2,0-0.5-0.1-0.7-0.1c-0.6,0-1,0.1-1.4,0.4c-0.4,0.3-0.5,0.7-0.6,1.3h-0.9
			C191.5,48.4,191.6,48,191.7,47.7z M196.1,49.8c-0.1,0.1-0.2,0.2-0.3,0.2c-0.2,0-0.3,0.1-0.4,0.1c-0.4,0.1-0.8,0.1-1.2,0.2
			c-0.4,0.1-0.8,0.1-1.1,0.2c-0.3,0.1-0.6,0.2-0.8,0.4c-0.2,0.2-0.3,0.5-0.3,0.8c0,0.2,0,0.4,0.1,0.6c0.1,0.2,0.2,0.3,0.4,0.4
			c0.2,0.1,0.3,0.2,0.5,0.3c0.2,0.1,0.4,0.1,0.6,0.1c0.3,0,0.7-0.1,1-0.2c0.3-0.1,0.6-0.3,0.8-0.4c0.2-0.2,0.4-0.4,0.5-0.7
			c0.1-0.3,0.2-0.6,0.2-1L196.1,49.8L196.1,49.8z"/>
	</g>
</g>
</svg>
